<svg xmlns="http://www.w3.org/2000/svg"  viewBox="0 0 2500 2500" width="64px" height="64px"><circle id="Layer_2" cx="1250" cy="1250" r="1250" fill="none"/><g id="Layer_1"><path d="M1108.22,2021.86c0,1.03-0.06,1.93-0.16,2.7s-0.29,1.38-0.53,1.84s-0.55,0.81-0.9,1.02c-0.35,0.21-0.76,0.33-1.19,0.33 h-29.79v91.82c0,0.44-0.1,0.82-0.33,1.15c-0.23,0.33-0.59,0.58-1.15,0.78c-0.55,0.19-1.27,0.36-2.17,0.49 c-0.9,0.13-2.03,0.2-3.4,0.2c-1.31,0-2.43-0.07-3.36-0.2c-0.92-0.13-1.66-0.3-2.21-0.49c-0.55-0.19-0.92-0.45-1.15-0.78 c-0.23-0.33-0.33-0.71-0.33-1.15v-91.82h-29.79c-0.43,0-0.84-0.11-1.19-0.33c-0.35-0.21-0.63-0.56-0.86-1.02 c-0.22-0.46-0.39-1.07-0.53-1.84s-0.2-1.67-0.2-2.7s0.06-1.95,0.2-2.74c0.14-0.79,0.31-1.43,0.53-1.92 c0.23-0.49,0.51-0.85,0.86-1.06c0.35-0.21,0.76-0.33,1.19-0.33h73.65c0.43,0,0.84,0.11,1.19,0.33c0.35,0.21,0.65,0.57,0.9,1.06 c0.25,0.49,0.43,1.14,0.53,1.92C1108.16,2019.91,1108.22,2020.83,1108.22,2021.86z"/><path d="M1137.03,2021.12c0,3.16-0.59,5.32-1.8,6.46c-1.21,1.15-3.42,1.72-6.63,1.72c-3.17,0-5.34-0.56-6.51-1.68 s-1.76-3.23-1.76-6.34c0-3.16,0.59-5.32,1.8-6.46c1.21-1.15,3.42-1.72,6.63-1.72c3.17,0,5.34,0.56,6.51,1.68 S1137.03,2018.01,1137.03,2021.12z M1135.47,2119.65c0,0.44-0.1,0.81-0.33,1.1c-0.22,0.3-0.57,0.56-1.06,0.78 c-0.49,0.21-1.17,0.38-2.05,0.49c-0.88,0.11-1.98,0.16-3.36,0.16c-1.31,0-2.39-0.05-3.27-0.16s-1.58-0.28-2.09-0.49 s-0.88-0.48-1.06-0.78s-0.29-0.66-0.29-1.1V2046c0-0.38,0.1-0.74,0.29-1.06c0.18-0.33,0.55-0.6,1.06-0.82s1.21-0.38,2.09-0.49 c0.88-0.11,1.96-0.16,3.27-0.16c1.37,0,2.48,0.05,3.36,0.16c0.88,0.11,1.55,0.28,2.05,0.49c0.49,0.21,0.84,0.49,1.06,0.82 c0.23,0.33,0.33,0.69,0.33,1.06V2119.65z"/><path d="M1213.38,2108.44c0,0.93-0.02,1.73-0.08,2.41c-0.06,0.69-0.14,1.26-0.29,1.72c-0.14,0.46-0.31,0.87-0.49,1.23 c-0.18,0.36-0.63,0.87-1.31,1.55c-0.68,0.69-1.84,1.52-3.48,2.54c-1.64,1.01-3.48,1.91-5.52,2.7s-4.28,1.43-6.67,1.92 c-2.39,0.49-4.89,0.74-7.45,0.74c-5.3,0-9.98-0.87-14.08-2.62c-4.09-1.75-7.51-4.3-10.27-7.65c-2.76-3.36-4.85-7.48-6.3-12.36 c-1.45-4.88-2.17-10.52-2.17-16.9c0-7.25,0.88-13.49,2.66-18.7c1.78-5.21,4.19-9.48,7.28-12.81c3.09-3.32,6.71-5.8,10.88-7.41 c4.17-1.61,8.7-2.41,13.54-2.41c2.35,0,4.62,0.21,6.83,0.65c2.21,0.44,4.23,1.01,6.1,1.72c1.86,0.71,3.5,1.52,4.95,2.46 c1.45,0.93,2.5,1.72,3.15,2.37c0.65,0.65,1.1,1.18,1.35,1.55c0.25,0.38,0.45,0.83,0.61,1.35s0.27,1.1,0.33,1.76 s0.08,1.47,0.08,2.46c0,2.13-0.25,3.61-0.74,4.46c-0.49,0.85-1.08,1.27-1.8,1.27c-0.82,0-1.76-0.45-2.82-1.35 s-2.41-1.89-4.05-2.99c-1.64-1.09-3.62-2.09-5.93-2.99c-2.31-0.9-5.05-1.35-8.22-1.35c-6.49,0-11.48,2.5-14.93,7.49 s-5.2,12.23-5.2,21.73c0,4.75,0.45,8.91,1.35,12.48c0.9,3.57,2.23,6.56,3.97,8.96c1.74,2.4,3.89,4.18,6.42,5.36 c2.54,1.18,5.44,1.76,8.72,1.76c3.11,0,5.83-0.49,8.18-1.47c2.35-0.98,4.38-2.06,6.1-3.23c1.72-1.18,3.17-2.24,4.34-3.19 s2.09-1.43,2.74-1.43c0.39,0,0.72,0.11,0.98,0.33s0.51,0.58,0.7,1.1c0.18,0.52,0.33,1.18,0.41,1.96 C1213.34,2106.41,1213.38,2107.35,1213.38,2108.44z"/><path d="M1337.11,2021.86c0,1.03-0.06,1.93-0.16,2.7s-0.29,1.38-0.53,1.84s-0.55,0.81-0.9,1.02s-0.76,0.33-1.19,0.33h-29.79 v91.82c0,0.44-0.1,0.82-0.33,1.15c-0.22,0.33-0.59,0.58-1.15,0.78s-1.27,0.36-2.17,0.49c-0.9,0.13-2.03,0.2-3.4,0.2 c-1.31,0-2.43-0.07-3.36-0.2c-0.92-0.13-1.66-0.3-2.21-0.49s-0.92-0.45-1.15-0.78c-0.22-0.33-0.33-0.71-0.33-1.15v-91.82h-29.79 c-0.43,0-0.84-0.11-1.19-0.33s-0.63-0.56-0.86-1.02c-0.23-0.46-0.39-1.07-0.53-1.84s-0.2-1.67-0.2-2.7s0.06-1.95,0.2-2.74 c0.14-0.79,0.31-1.43,0.53-1.92c0.22-0.49,0.51-0.85,0.86-1.06c0.35-0.21,0.76-0.33,1.19-0.33h73.65c0.43,0,0.84,0.11,1.19,0.33 c0.35,0.21,0.65,0.57,0.9,1.06c0.25,0.49,0.43,1.14,0.53,1.92C1337.05,2019.91,1337.11,2020.83,1337.11,2021.86z"/><path d="M1393.25,2119.74c0,0.65-0.23,1.15-0.65,1.47c-0.43,0.33-1.04,0.57-1.8,0.74c-0.76,0.16-1.88,0.25-3.36,0.25 c-1.41,0-2.56-0.08-3.4-0.25c-0.84-0.16-1.45-0.41-1.84-0.74c-0.39-0.33-0.57-0.82-0.57-1.47v-7.37 c-3.21,3.44-6.81,6.11-10.76,8.02c-3.95,1.91-8.14,2.86-12.56,2.86c-3.87,0-7.39-0.5-10.52-1.51s-5.81-2.47-8.02-4.38 c-2.21-1.91-3.93-4.26-5.16-7.04c-1.23-2.78-1.84-5.94-1.84-9.49c0-4.14,0.84-7.74,2.54-10.8c1.7-3.06,4.11-5.6,7.28-7.61 s7.04-3.53,11.62-4.54c4.58-1.01,9.74-1.51,15.47-1.51h10.15v-5.73c0-2.83-0.31-5.35-0.9-7.53c-0.59-2.18-1.58-4-2.91-5.44 s-3.07-2.54-5.2-3.27c-2.13-0.74-4.75-1.1-7.86-1.1c-3.33,0-6.32,0.4-8.96,1.19s-4.97,1.67-6.96,2.62 c-1.98,0.95-3.66,1.83-4.99,2.62c-1.33,0.79-2.33,1.19-2.99,1.19c-0.43,0-0.82-0.11-1.15-0.33c-0.33-0.21-0.61-0.54-0.86-0.98 c-0.25-0.44-0.43-0.99-0.53-1.68c-0.1-0.69-0.16-1.43-0.16-2.25c0-1.36,0.1-2.44,0.29-3.23c0.18-0.79,0.65-1.54,1.39-2.25 s2.01-1.54,3.81-2.5c1.8-0.95,3.87-1.83,6.22-2.62c2.35-0.79,4.91-1.44,7.69-1.96c2.78-0.52,5.59-0.78,8.43-0.78 c5.3,0,9.8,0.6,13.5,1.8c3.7,1.2,6.71,2.96,9,5.28c2.29,2.32,3.95,5.2,4.99,8.63c1.04,3.44,1.55,7.45,1.55,12.03V2119.74z M1379.83,2086.1h-11.54c-3.7,0-6.94,0.32-9.66,0.94c-2.72,0.62-4.99,1.55-6.79,2.78c-1.8,1.23-3.13,2.7-3.97,4.42 c-0.84,1.72-1.27,3.69-1.27,5.93c0,3.82,1.21,6.86,3.64,9.12c2.43,2.26,5.83,3.4,10.19,3.4c3.54,0,6.83-0.9,9.86-2.7 c3.03-1.8,6.2-4.55,9.53-8.27V2086.1z"/><path d="M1471,2108.44c0,0.93-0.02,1.73-0.08,2.41c-0.06,0.69-0.14,1.26-0.29,1.72c-0.14,0.46-0.31,0.87-0.49,1.23 c-0.18,0.36-0.63,0.87-1.31,1.55c-0.68,0.69-1.84,1.52-3.48,2.54s-3.48,1.91-5.52,2.7s-4.28,1.43-6.67,1.92 s-4.89,0.74-7.45,0.74c-5.3,0-9.98-0.87-14.08-2.62c-4.09-1.75-7.51-4.3-10.27-7.65c-2.76-3.36-4.85-7.48-6.3-12.36 c-1.45-4.88-2.17-10.52-2.17-16.9c0-7.25,0.88-13.49,2.66-18.7s4.19-9.48,7.28-12.81c3.09-3.32,6.71-5.8,10.88-7.41 c4.17-1.61,8.69-2.41,13.54-2.41c2.35,0,4.62,0.21,6.83,0.65c2.21,0.44,4.23,1.01,6.1,1.72c1.86,0.71,3.5,1.52,4.95,2.46 c1.45,0.93,2.5,1.72,3.15,2.37c0.65,0.65,1.1,1.18,1.35,1.55c0.25,0.38,0.45,0.83,0.61,1.35c0.16,0.52,0.27,1.1,0.33,1.76 s0.08,1.47,0.08,2.46c0,2.13-0.25,3.61-0.74,4.46s-1.08,1.27-1.8,1.27c-0.82,0-1.76-0.45-2.82-1.35s-2.41-1.89-4.05-2.99 c-1.64-1.09-3.62-2.09-5.93-2.99c-2.31-0.9-5.05-1.35-8.22-1.35c-6.49,0-11.48,2.5-14.94,7.49c-3.46,4.99-5.2,12.23-5.2,21.73 c0,4.75,0.45,8.91,1.35,12.48c0.9,3.57,2.23,6.56,3.97,8.96c1.74,2.4,3.89,4.18,6.42,5.36c2.54,1.18,5.44,1.76,8.72,1.76 c3.11,0,5.83-0.49,8.18-1.47s4.38-2.06,6.1-3.23c1.72-1.18,3.17-2.24,4.34-3.19s2.09-1.43,2.74-1.43c0.39,0,0.72,0.11,0.98,0.33 s0.51,0.58,0.7,1.1c0.18,0.52,0.33,1.18,0.41,1.96C1470.96,2106.41,1471,2107.35,1471,2108.44z"/><g><path fill="#4ec4a5" d="M1920.4,572.73v948.82c0,108.24-87.75,195.99-195.99,195.99H775.59c-108.24,0-195.99-87.75-195.99-195.99 V572.73c0-108.24,87.75-195.99,195.99-195.99h948.82C1832.65,376.75,1920.4,464.49,1920.4,572.73z"/><path fill="#fff" d="M795.81,1579.26c-43.04,0-77.93-34.89-77.93-77.93V592.95c0-43.04,34.89-77.93,77.93-77.93h908.38 c43.04,0,77.93,34.89,77.93,77.93v908.38c0,43.04-34.89,77.93-77.93,77.93H795.81z"/><path fill="#44394a" d="M1287.47,658.77v776.75c0,20.69-16.78,37.47-37.47,37.47l0,0c-20.69,0-37.47-16.78-37.47-37.47V658.77 c0-20.69,16.78-37.47,37.47-37.47l0,0C1270.7,621.3,1287.47,638.07,1287.47,658.77z"/><path fill="#44394a" d="M1638.37,1084.61H861.63c-20.69,0-37.47-16.78-37.47-37.47l0,0c0-20.69,16.78-37.47,37.47-37.47h776.75 c20.69,0,37.47,16.78,37.47,37.47l0,0C1675.84,1067.84,1659.07,1084.61,1638.37,1084.61z"/><g><path fill="#8c9ffa" d="M1507.55,915.01c-71.79,0-130.19-58.4-130.19-130.19c0-71.8,58.4-130.21,130.19-130.21 c71.79,0,130.19,58.41,130.19,130.21C1637.74,856.61,1579.34,915.01,1507.55,915.01z M1507.55,692.32 c-50.99,0-92.48,41.5-92.48,92.5c0,50.99,41.49,92.48,92.48,92.48c50.99,0,92.48-41.49,92.48-92.48 C1600.04,733.82,1558.55,692.32,1507.55,692.32z"/><path fill="#8c9ffa" d="M992.45,1439.66c-71.79,0-130.19-58.4-130.19-130.19c0-71.8,58.4-130.21,130.19-130.21 s130.19,58.41,130.19,130.21C1122.64,1381.26,1064.24,1439.66,992.45,1439.66z M992.45,1216.97 c-50.99,0-92.48,41.5-92.48,92.5c0,50.99,41.49,92.48,92.48,92.48c50.99,0,92.48-41.49,92.48-92.48 C1084.93,1258.47,1043.44,1216.97,992.45,1216.97z"/><path fill="#fc8068" d="M894.71,925.51c-4.83,0-9.65-1.84-13.33-5.52c-7.37-7.37-7.37-19.3,0-26.67l195.48-195.48 c7.37-7.35,19.29-7.35,26.66,0c7.37,7.37,7.37,19.3,0,26.67L908.03,919.99C904.35,923.67,899.53,925.51,894.71,925.51z"/><path fill="#fc8068" d="M1090.19,925.51c-4.83,0-9.65-1.84-13.33-5.52L881.38,724.51c-7.37-7.37-7.37-19.3,0-26.67 c7.37-7.35,19.29-7.35,26.66,0l195.48,195.48c7.37,7.37,7.37,19.3,0,26.67C1099.84,923.67,1095.02,925.51,1090.19,925.51z"/><g><path fill="#fc8068" d="M1396.22,1426.06c-4.83,0-9.65-1.84-13.33-5.52c-7.37-7.37-7.37-19.3,0-26.67l195.48-195.48 c7.37-7.35,19.29-7.35,26.66,0c7.37,7.37,7.37,19.3,0,26.67l-195.48,195.48C1405.86,1424.22,1401.05,1426.06,1396.22,1426.06 z"/><path fill="#fc8068" d="M1591.7,1426.06c-4.83,0-9.65-1.84-13.33-5.52l-195.48-195.48c-7.37-7.37-7.37-19.3,0-26.67 c7.37-7.35,19.29-7.35,26.66,0l195.48,195.48c7.37,7.37,7.37,19.3,0,26.67C1601.35,1424.22,1596.53,1426.06,1591.7,1426.06z"/></g></g></g></g></svg>